<svg xmlns="http://www.w3.org/2000/svg" xml:space="preserve" fill-rule="evenodd" stroke-linejoin="round" stroke-miterlimit="2" clip-rule="evenodd" viewBox="0 0 110 110">
  <g fill-rule="nonzero">
    <path fill="#002147" d="M50.854 99.007c.25-2.903 2.815-5.045 5.715-4.792a5.257 5.257 0 0 1 4.784 5.703 5.266 5.266 0 0 1-6.396 4.684 5.263 5.263 0 0 1-4.103-5.595ZM39.714 100.651l-.002.011a5.273 5.273 0 0 1-2.725-6.937 5.255 5.255 0 0 1 6.93-2.738 5.28 5.28 0 0 1 2.735 6.94 5.278 5.278 0 0 1-5.97 3.046 4.72 4.72 0 0 1-.968-.322Z"/>
    <path fill="#ffd13a" d="M65.694 99.586c-.697-2.828 1.029-5.685 3.856-6.371a5.259 5.259 0 0 1 6.371 3.855c.697 2.83-1.029 5.687-3.855 6.372l-.003.012a5.245 5.245 0 0 1-2.389.024 5.257 5.257 0 0 1-3.98-3.892Z"/>
    <path fill="#002147" d="M25.886 91.718a5.263 5.263 0 0 1-.35-7.443 5.266 5.266 0 0 1 7.445-.36 5.286 5.286 0 0 1 .347 7.452 5.274 5.274 0 0 1-7.442.351Z"/>
    <path fill="#ffb700" d="M79.914 95.364a5.278 5.278 0 0 1 1.599-7.283 5.266 5.266 0 0 1 7.283 1.597c1.57 2.447.85 5.712-1.597 7.284l.002-.012a5.237 5.237 0 0 1-3.981.715 5.286 5.286 0 0 1-3.306-2.301Z"/>
    <path fill="#002147" d="M15.676 78.804a5.28 5.28 0 0 1 2.059-7.168 5.263 5.263 0 0 1 7.158 2.067 5.263 5.263 0 0 1-2.058 7.16 5.231 5.231 0 0 1-3.683.542 5.24 5.24 0 0 1-3.476-2.601Z"/>
    <path fill="#ff7c00" d="M92.028 86.763a5.286 5.286 0 0 1-.888-7.41 5.292 5.292 0 0 1 7.406-.876c2.288 1.804 2.672 5.118.878 7.407a5.24 5.24 0 0 1-5.277 1.877 5.114 5.114 0 0 1-2.119-.998Z"/>
    <path fill="#002147" d="M10.171 63.271a5.265 5.265 0 0 1 4.283-6.103 5.262 5.262 0 0 1 6.097 4.27 5.255 5.255 0 0 1-4.272 6.106c-.7.127-1.388.105-2.049-.041a5.276 5.276 0 0 1-4.059-4.232Z"/>
    <path fill="#ff7c00" d="M100.614 74.656a5.282 5.282 0 0 1-3.274-6.702l.01.003c.01-.041.019-.083.04-.131a5.272 5.272 0 0 1 6.676-3.304 5.261 5.261 0 0 1 3.312 6.678c-.009.042-.026.069-.033.1-.018.029-.023.062-.027.081a5.27 5.27 0 0 1-6.12 3.435 5.669 5.669 0 0 1-.584-.16Z"/>
    <path fill="#40b5ff" d="M10.069 46.765a5.275 5.275 0 0 1 10.41 1.704 5.276 5.276 0 0 1-6.062 4.348 2.671 2.671 0 0 1-.281-.052 5.284 5.284 0 0 1-4.067-6Z"/>
    <path fill="#f20c51" d="M99.464 55.005a5.264 5.264 0 0 1 5.224-5.312A5.264 5.264 0 0 1 110 54.917a5.28 5.28 0 0 1-5.227 5.322 5.614 5.614 0 0 1-1.184-.13 5.27 5.27 0 0 1-4.125-5.104Z"/>
    <path fill="#5971f2" d="M17.538 38.299a5.258 5.258 0 0 1-2.127-7.141 5.267 5.267 0 0 1 7.141-2.128 5.267 5.267 0 0 1 2.127 7.142 5.279 5.279 0 0 1-5.772 2.646 4.997 4.997 0 0 1-1.369-.519Z"/>
    <path fill="#f20c51" d="M97.185 42.22a5.278 5.278 0 0 1 3.198-6.735 5.279 5.279 0 0 1 6.735 3.199 5.276 5.276 0 0 1-3.198 6.734 5.277 5.277 0 0 1-6.735-3.198Z"/>
    <path fill="#5324b3" d="M25.234 25.615c-1.948-2.163-1.797-5.497.355-7.448a5.272 5.272 0 0 1 7.449.355 5.26 5.26 0 0 1-.354 7.438A5.242 5.242 0 0 1 28 27.212a5.337 5.337 0 0 1-2.766-1.597Z"/>
    <path fill="#ff7cff" d="M90.873 30.84a5.271 5.271 0 0 1 8.251-6.561 5.274 5.274 0 0 1-.845 7.406 5.258 5.258 0 0 1-4.417 1.017 5.229 5.229 0 0 1-2.989-1.862Z"/>
    <path fill="#5324b3" d="M36.699 16.168c-1.154-2.669.083-5.765 2.752-6.92a5.27 5.27 0 0 1 6.93 2.755c1.154 2.67-.083 5.775-2.754 6.931a5.302 5.302 0 0 1-3.219.306 5.244 5.244 0 0 1-3.709-3.072Z"/>
    <path fill="#ff7cff" d="M81.216 22.089a5.275 5.275 0 0 1-1.586-7.282 5.273 5.273 0 0 1 7.291-1.574 5.262 5.262 0 0 1 1.574 7.281 5.275 5.275 0 0 1-5.565 2.301 5.007 5.007 0 0 1-1.714-.726Z"/>
    <path fill="#9b54e6" d="M50.588 10.951a5.273 5.273 0 1 1 5.676 4.849 5.595 5.595 0 0 1-1.556-.116 5.277 5.277 0 0 1-4.12-4.733ZM69.247 16.901a5.268 5.268 0 0 1-3.819-6.399 5.262 5.262 0 0 1 6.398-3.818l.011.002a5.272 5.272 0 0 1 3.807 6.408 5.269 5.269 0 0 1-6.244 3.851c-.053-.011-.102-.032-.153-.044Z"/>
    <path fill="#002147" d="M58.621 92.352a3.689 3.689 0 1 1 .247-7.372 3.671 3.671 0 0 1 3.556 3.806 3.684 3.684 0 0 1-3.337 3.556 3.481 3.481 0 0 1-.466.01Z"/>
    <path fill="#ffd13a" d="M65.756 88.384a3.684 3.684 0 0 1 2.531-4.566 3.692 3.692 0 0 1 2.025 7.1 3.687 3.687 0 0 1-4.556-2.534Z"/>
    <path fill="#002147" d="M47.056 90.143c-1.923-.693-2.923-2.799-2.239-4.71.684-1.922 2.799-2.935 4.711-2.239a3.687 3.687 0 1 1-2.472 6.949Z"/>
    <path fill="#ffb700" d="M75.89 84.956a3.688 3.688 0 0 1 1.006-5.126 3.689 3.689 0 0 1 5.115 1.015 3.69 3.69 0 0 1-1.005 5.117 3.645 3.645 0 0 1-1.718.604 3.676 3.676 0 0 1-3.398-1.61Z"/>
    <path fill="#002147" d="M36.705 84.531a3.686 3.686 0 0 1-.698-5.173 3.696 3.696 0 0 1 5.173-.698 3.695 3.695 0 0 1 .698 5.173 3.675 3.675 0 0 1-2.597 1.438 3.642 3.642 0 0 1-2.576-.74Z"/>
    <path fill="#ff7c00" d="M84.468 78.571a3.691 3.691 0 0 1-.633-5.177c1.241-1.612 3.563-1.901 5.176-.645a3.691 3.691 0 0 1 .635 5.177 3.664 3.664 0 0 1-2.568 1.406 3.7 3.7 0 0 1-2.61-.761Z"/>
    <path fill="#002147" d="M28.553 76.02a3.693 3.693 0 0 1 .928-5.141 3.683 3.683 0 0 1 5.132.931 3.68 3.68 0 0 1-.921 5.129 3.64 3.64 0 0 1-1.767.65 3.72 3.72 0 0 1-3.372-1.569Z"/>
    <path fill="#ff7c00" d="M90.62 69.808a3.686 3.686 0 0 1-2.239-4.712c.02-.032.027-.057.036-.088a3.682 3.682 0 0 1 4.7-2.248 3.68 3.68 0 0 1 2.248 4.71l.001.011a.415.415 0 0 1-.034.099 3.697 3.697 0 0 1-3.144 2.436 3.657 3.657 0 0 1-1.568-.208Z"/>
    <path fill="#002147" d="M23.416 65.414a3.691 3.691 0 0 1 2.455-4.602 3.682 3.682 0 0 1 4.6 2.456 3.68 3.68 0 0 1-3.196 4.745 3.685 3.685 0 0 1-3.859-2.599Z"/>
    <path fill="#f20c51" d="M93.728 59.476a3.696 3.696 0 0 1-3.607-3.777 3.702 3.702 0 0 1 3.768-3.608 3.685 3.685 0 0 1 3.606 3.768l.011-.001a3.712 3.712 0 0 1-3.355 3.601c-.137.013-.276.014-.423.017Z"/>
    <path fill="#40b5ff" d="M25.417 57.489a3.68 3.68 0 0 1-3.606-3.768 3.683 3.683 0 0 1 3.781-3.598c2.03.037 3.641 1.727 3.595 3.769a3.683 3.683 0 0 1-3.345 3.589 2.867 2.867 0 0 1-.425.008Z"/>
    <path fill="#f20c51" d="M88.824 46.322a3.689 3.689 0 0 1 2.445-4.6 3.688 3.688 0 1 1-2.445 4.6Z"/>
    <path fill="#5971f2" d="M26.201 46.828a3.698 3.698 0 0 1-2.24-4.721 3.692 3.692 0 0 1 6.952 2.484 3.687 3.687 0 0 1-3.132 2.432 3.66 3.66 0 0 1-1.58-.195Z"/>
    <path fill="#ff7cff" d="M84.673 37.793a3.684 3.684 0 0 1 .919-5.14 3.69 3.69 0 0 1 5.129.92 3.686 3.686 0 0 1-.907 5.14 3.69 3.69 0 0 1-1.779.64 3.68 3.68 0 0 1-3.362-1.56Z"/>
    <path fill="#5971f2" d="M30.284 36.938a3.707 3.707 0 0 1-.658-5.187 3.713 3.713 0 0 1 5.187-.645 3.69 3.69 0 0 1 .646 5.176 3.672 3.672 0 0 1-2.579 1.415 3.675 3.675 0 0 1-2.596-.759Z"/>
    <path fill="#ff7cff" d="M78.096 30.942a3.694 3.694 0 0 1-.698-5.171 3.693 3.693 0 0 1 5.173-.699 3.692 3.692 0 0 1-1.9 6.611 3.673 3.673 0 0 1-2.575-.741Z"/>
    <path fill="#5324b3" d="M37.261 28.83a3.7 3.7 0 0 1 1.003-5.127 3.69 3.69 0 0 1 5.117 1.007 3.675 3.675 0 0 1-.995 5.114 3.687 3.687 0 0 1-5.125-.994Z"/>
    <path fill="#9b54e6" d="M69.738 26.431a3.686 3.686 0 0 1-2.237-4.712c.674-1.92 2.792-2.922 4.712-2.238a3.686 3.686 0 0 1-.905 7.146 3.654 3.654 0 0 1-1.57-.196Z"/>
    <path fill="#5324b3" d="M46.416 23.295c-.562-1.955.578-3.992 2.533-4.566a3.698 3.698 0 0 1 4.565 2.534 3.695 3.695 0 0 1-3.211 4.692 3.7 3.7 0 0 1-3.887-2.66Z"/>
    <path fill="#9b54e6" d="M60.4 24.655a3.689 3.689 0 1 1 .247-7.373 3.68 3.68 0 0 1 3.556 3.805 3.685 3.685 0 0 1-3.803 3.568Z"/>
    <path fill="#002147" d="M47.233 79.611a3.053 3.053 0 0 1-1.36-4.093 3.046 3.046 0 0 1 4.093-1.361 3.053 3.053 0 0 1 1.36 4.094 3.044 3.044 0 0 1-3.656 1.533 4.037 4.037 0 0 1-.437-.173ZM55.457 79.335a3.048 3.048 0 0 1 3.198-2.902 3.04 3.04 0 0 1 2.892 3.195 3.048 3.048 0 0 1-3.196 2.903 3.059 3.059 0 0 1-2.894-3.196ZM38.239 72.466a3.041 3.041 0 0 1 .386-4.29 3.034 3.034 0 0 1 4.292.386 3.035 3.035 0 0 1-.386 4.29 3.02 3.02 0 0 1-2.892.559 2.978 2.978 0 0 1-1.4-.945Z"/>
    <path fill="#ffd13a" d="M65.774 78.952a3.035 3.035 0 0 1 1.733-3.942 3.056 3.056 0 0 1 3.952 1.734 3.06 3.06 0 0 1-1.744 3.951 3.038 3.038 0 0 1-3.941-1.743Z"/>
    <path fill="#002147" d="M32.841 62.312a3.052 3.052 0 0 1 2.095-3.771 3.051 3.051 0 0 1 3.777 2.086 3.053 3.053 0 0 1-2.095 3.771 2.985 2.985 0 0 1-1.772-.023 3.069 3.069 0 0 1-2.005-2.063Z"/>
    <path fill="#ff7c00" d="M75.016 74.386a3.053 3.053 0 0 1-.074-4.29c.028-.022.046-.049.076-.072a3.046 3.046 0 0 1 4.309-.067 3.057 3.057 0 0 1 .081 4.301c-.029.023-.05.059-.081.082a3.032 3.032 0 0 1-3.116.763 3.083 3.083 0 0 1-1.195-.717Z"/>
    <path fill="#40b5ff" d="M32.015 50.844a3.048 3.048 0 1 1 6.038.822 3.046 3.046 0 0 1-3.436 2.611 3.04 3.04 0 0 1-.531-.116 3.038 3.038 0 0 1-2.071-3.317Z"/>
    <path fill="#ff7c00" d="M81.599 66.337a3.052 3.052 0 0 1-1.842-3.896l.012-.008a3.03 3.03 0 0 1 3.893-1.83 3.044 3.044 0 0 1 1.839 3.904l.004-.01a3.053 3.053 0 0 1-3.802 1.883.356.356 0 0 1-.104-.043Z"/>
    <path fill="#5971f2" d="M36.895 44.219a3.054 3.054 0 0 1 3.252-5.168 3.059 3.059 0 0 1 .958 4.21l-.011-.003a3.043 3.043 0 0 1-4.199.961Z"/>
    <path fill="#f20c51" d="M80.962 53.548a3.048 3.048 0 0 1 2.821-3.261 3.032 3.032 0 0 1 3.261 2.81 3.046 3.046 0 0 1-3.969 3.137 3.082 3.082 0 0 1-2.113-2.686Z"/>
    <path fill="#5324b3" d="M43.128 35.991a3.05 3.05 0 0 1 5.076-3.38 3.04 3.04 0 0 1-.848 4.229c-.808.544-1.77.64-2.626.365a3.02 3.02 0 0 1-1.602-1.214Z"/>
    <path fill="#ff7cff" d="M78.471 44.92a3.034 3.034 0 0 1 1.252-4.119 3.049 3.049 0 0 1 4.13 1.256 3.066 3.066 0 0 1-1.257 4.129 3.073 3.073 0 0 1-2.371.21 3.012 3.012 0 0 1-1.754-1.476Z"/>
    <path fill="#5324b3" d="M52.186 31.066a3.063 3.063 0 0 1 2.523-3.506 3.05 3.05 0 0 1 3.497 2.521 3.043 3.043 0 0 1-2.524 3.506l.01.003a3.088 3.088 0 0 1-1.424-.105 3.092 3.092 0 0 1-2.082-2.419Z"/>
    <path fill="#9b54e6" d="M62.47 30.287a3.061 3.061 0 0 1 3.727-2.185 3.06 3.06 0 0 1 2.182 3.726 3.046 3.046 0 0 1-3.722 2.177c-.062-.009-.12-.028-.168-.043a3.054 3.054 0 0 1-2.019-3.675Z"/>
    <path fill="#ff7cff" d="M72.699 38.022a3.06 3.06 0 0 1-.504-4.289 3.047 3.047 0 0 1 4.284-.495 3.061 3.061 0 0 1 .506 4.289 3.057 3.057 0 0 1-4.286.495Z"/>
  </g>
</svg>
